0
SECTION
2
HEADER
9
$INSUNITS
70
4
9
$ACADVER
1
AC1014
9
$HANDSEED
5
FFFF
0
ENDSEC
0
SECTION
2
TABLES
0
TABLE
2
VPORT
5
8
100
AcDbSymbolTable
0
ENDTAB
0
TABLE
2
LTYPE
5
5
100
AcDbSymbolTable
0
LTYPE
5
14
100
AcDbSymbolTableRecord
100
AcDbLinetypeTableRecord
2
BYBLOCK
70
0
0
LTYPE
5
15
100
AcDbSymbolTableRecord
100
AcDbLinetypeTableRecord
2
BYLAYER
70
0
0
ENDTAB
0
TABLE
2
LAYER
5
2
100
AcDbSymbolTable
70
2
0
LAYER
5
50
100
AcDbSymbolTableRecord
100
AcDbLayerTableRecord
2
0
70
0
6
CONTINUOUS
0
ENDTAB
0
TABLE
2
STYLE
5
3
100
AcDbSymbolTable
70
1
0
STYLE
5
11
100
AcDbSymbolTableRecord
100
AcDbTextStyleTableRecord
2
STANDARD
70
0
0
ENDTAB
0
TABLE
2
VIEW
5
6
100
AcDbSymbolTable
70
0
0
ENDTAB
0
TABLE
2
UCS
5
7
100
AcDbSymbolTable
70
0
0
ENDTAB
0
TABLE
2
APPID
5
9
100
AcDbSymbolTable
70
2
0
APPID
5
12
100
AcDbSymbolTableRecord
100
AcDbRegAppTableRecord
2
ACAD
70
0
0
ENDTAB
0
TABLE
2
DIMSTYLE
5
A
100
AcDbSymbolTable
70
1
0
ENDTAB
0
TABLE
2
BLOCK_RECORD
5
1
100
AcDbSymbolTable
70
1
0
BLOCK_RECORD
5
1F
100
AcDbSymbolTableRecord
100
AcDbBlockTableRecord
2
*MODEL_SPACE
0
BLOCK_RECORD
5
1B
100
AcDbSymbolTableRecord
100
AcDbBlockTableRecord
2
*PAPER_SPACE
0
ENDTAB
0
ENDSEC
0
SECTION
2
BLOCKS
0
BLOCK
5
20
100
AcDbEntity
100
AcDbBlockBegin
2
*MODEL_SPACE
0
ENDBLK
5
21
100
AcDbEntity
100
AcDbBlockEnd
0
BLOCK
5
1C
100
AcDbEntity
100
AcDbBlockBegin
2
*PAPER_SPACE
0
ENDBLK
5
1D
100
AcDbEntity
100
AcDbBlockEnd
0
ENDSEC
0
SECTION
2
ENTITIES
0
LWPOLYLINE
5
100
100
AcDbEntity
8
0
100
AcDbPolyline
90
26
70
1
43
0.0
10
4.9999999999999991
20
5.5511151231257827e-16
10
135
20
-6.6613381477509392e-15
42
0.41421356237309326
10
140
20
4.9999999999999991
10
140
20
18.999998509883866
10
144
20
18.999998509883866
10
144
20
39.499999999999993
10
140
20
39.499999999999993
10
140
20
79.5
10
144
20
79.5
10
144
20
100
10
140
20
100
10
140
20
113.99999999999999
42
0.41421356237309503
10
134.99999999999997
20
119
10
43.999999999999993
20
119
10
39.999999999999993
20
119
10
5.0000000000000124
20
119
42
0.41421356237309503
10
-5.8034385378133184e-15
20
113.99999999999999
10
-1.7763568394002505e-14
20
100.00000149011612
10
-8.0000022053718745
20
100.00000149011612
10
-8.0000022053718745
20
79.5
10
-1.7763568394002505e-14
20
79.5
10
-1.7763568394002505e-14
20
39.499999999999993
10
-8.0000022053718745
20
39.499999999999993
10
-8.0000022053718745
20
18.999998509883866
10
-1.7763568394002505e-14
20
18.999998509883866
10
0
20
5
42
0.41421356237309515
0
CIRCLE
5
101
100
AcDbEntity
8
0
100
AcDbCircle
10
5.0000000000000124
20
113.99999999999999
30
0
40
1.7500000000000004
210
0
220
0
230
1
0
CIRCLE
5
102
100
AcDbEntity
8
0
100
AcDbCircle
10
134.99999999999997
20
113.99999999999999
30
0
40
1.7500000000000091
210
0
220
0
230
1
0
CIRCLE
5
103
100
AcDbEntity
8
0
100
AcDbCircle
10
4.9999999999999982
20
4.9999999999999991
30
0
40
1.75
210
0
220
0
230
1
0
CIRCLE
5
104
100
AcDbEntity
8
0
100
AcDbCircle
10
134.99999999999997
20
5.0000000000000107
30
0
40
1.7499999999999964
210
0
220
0
230
1
0
CIRCLE
5
105
100
AcDbEntity
8
0
100
AcDbCircle
10
-6.0000021755695521
20
23.999998584389672
30
0
40
1.0000000149011612
210
0
220
0
230
1
0
CIRCLE
5
106
100
AcDbEntity
8
0
100
AcDbCircle
10
-6.0000021755695521
20
33.999998733401284
30
0
40
1.0000000149011612
210
0
220
0
230
1
0
LINE
5
107
100
AcDbEntity
8
0
100
AcDbLine
10
-1.7763568394002505e-14
20
79.5
30
0
11
-1.7763568394002505e-14
21
39.499999999999993
31
0
0
CIRCLE
5
108
100
AcDbEntity
8
0
100
AcDbCircle
10
-6.0000021755695521
20
95.000001415610313
30
0
40
1.0000000149011612
210
0
220
0
230
1
0
CIRCLE
5
109
100
AcDbEntity
8
0
100
AcDbCircle
10
-6.0000021755695521
20
85.000001266598701
30
0
40
1.0000000149011612
210
0
220
0
230
1
0
ENDSEC
0
SECTION
2
OBJECTS
0
DICTIONARY
5
C
100
AcDbDictionary
3
ACAD_GROUP
350
D
3
ACAD_MLINESTYLE
350
17
0
DICTIONARY
5
D
100
AcDbDictionary
0
DICTIONARY
5
1A
330
C
100
AcDbDictionary
0
DICTIONARY
5
17
100
AcDbDictionary
0
ENDSEC
0
EOF
