0
SECTION
2
HEADER
9
$INSUNITS
70
4
9
$ACADVER
1
AC1014
9
$HANDSEED
5
FFFF
0
ENDSEC
0
SECTION
2
TABLES
0
TABLE
2
VPORT
5
8
100
AcDbSymbolTable
0
ENDTAB
0
TABLE
2
LTYPE
5
5
100
AcDbSymbolTable
0
LTYPE
5
14
100
AcDbSymbolTableRecord
100
AcDbLinetypeTableRecord
2
BYBLOCK
70
0
0
LTYPE
5
15
100
AcDbSymbolTableRecord
100
AcDbLinetypeTableRecord
2
BYLAYER
70
0
0
ENDTAB
0
TABLE
2
LAYER
5
2
100
AcDbSymbolTable
70
2
0
LAYER
5
50
100
AcDbSymbolTableRecord
100
AcDbLayerTableRecord
2
0
70
0
6
CONTINUOUS
0
ENDTAB
0
TABLE
2
STYLE
5
3
100
AcDbSymbolTable
70
1
0
STYLE
5
11
100
AcDbSymbolTableRecord
100
AcDbTextStyleTableRecord
2
STANDARD
70
0
0
ENDTAB
0
TABLE
2
VIEW
5
6
100
AcDbSymbolTable
70
0
0
ENDTAB
0
TABLE
2
UCS
5
7
100
AcDbSymbolTable
70
0
0
ENDTAB
0
TABLE
2
APPID
5
9
100
AcDbSymbolTable
70
2
0
APPID
5
12
100
AcDbSymbolTableRecord
100
AcDbRegAppTableRecord
2
ACAD
70
0
0
ENDTAB
0
TABLE
2
DIMSTYLE
5
A
100
AcDbSymbolTable
70
1
0
ENDTAB
0
TABLE
2
BLOCK_RECORD
5
1
100
AcDbSymbolTable
70
1
0
BLOCK_RECORD
5
1F
100
AcDbSymbolTableRecord
100
AcDbBlockTableRecord
2
*MODEL_SPACE
0
BLOCK_RECORD
5
1B
100
AcDbSymbolTableRecord
100
AcDbBlockTableRecord
2
*PAPER_SPACE
0
ENDTAB
0
ENDSEC
0
SECTION
2
BLOCKS
0
BLOCK
5
20
100
AcDbEntity
100
AcDbBlockBegin
2
*MODEL_SPACE
0
ENDBLK
5
21
100
AcDbEntity
100
AcDbBlockEnd
0
BLOCK
5
1C
100
AcDbEntity
100
AcDbBlockBegin
2
*PAPER_SPACE
0
ENDBLK
5
1D
100
AcDbEntity
100
AcDbBlockEnd
0
ENDSEC
0
SECTION
2
ENTITIES
0
LWPOLYLINE
5
100
100
AcDbEntity
8
0
100
AcDbPolyline
90
4
70
1
43
0.0
10
38.999999999999993
20
100
10
42.999999999999986
20
100
10
42.999999999999986
20
79.5
10
38.999999999999986
20
79.5
0
LWPOLYLINE
5
101
100
AcDbEntity
8
0
100
AcDbPolyline
90
4
70
1
43
0.0
10
9.9999999999999822
20
100.00000149011612
10
5.9999999999999822
20
100.00000149011612
10
5.9999988973140539
20
79.5
10
9.9999999999999822
20
79.5
0
LWPOLYLINE
5
102
100
AcDbEntity
8
0
100
AcDbPolyline
90
4
70
1
43
0.0
10
38.999999999999986
20
39.499999999999993
10
42.999999999999986
20
39.499999999999993
10
43.000000000000007
20
18.999998509883866
10
39
20
18.999998509883866
0
LWPOLYLINE
5
103
100
AcDbEntity
8
0
100
AcDbPolyline
90
4
70
1
43
0.0
10
9.9999999999999822
20
39.499999999999993
10
5.9999999999999822
20
39.499999999999993
10
5.9999988973140539
20
18.999998509883866
10
9.9999999999999822
20
18.999998509883866
0
LWPOLYLINE
5
104
100
AcDbEntity
8
0
100
AcDbPolyline
90
4
70
1
43
0.0
10
34.000000357627869
20
69.5
10
14.999999999999982
20
69.5
10
14.999999999999982
20
71.5
10
34.000000357627869
20
71.5
0
LWPOLYLINE
5
105
100
AcDbEntity
8
0
100
AcDbPolyline
90
4
70
1
43
0.0
10
34.000000357627869
20
73.5
10
14.999999999999982
20
73.5
10
14.999999999999982
20
75.5
10
34.000000357627869
20
75.5
0
LWPOLYLINE
5
106
100
AcDbEntity
8
0
100
AcDbPolyline
90
4
70
1
43
0.0
10
34.000000357627869
20
89.500000000000014
10
14.999999999999982
20
89.500000000000014
10
14.999999999999982
20
91.500000000000028
10
34.000000357627869
20
91.500000000000028
0
LWPOLYLINE
5
107
100
AcDbEntity
8
0
100
AcDbPolyline
90
4
70
1
43
0.0
10
34.000000357627869
20
81.5
10
14.999999999999982
20
81.5
10
14.999999999999982
20
83.500000000000014
10
34.000000357627869
20
83.500000000000014
0
LWPOLYLINE
5
108
100
AcDbEntity
8
0
100
AcDbPolyline
90
4
70
1
43
0.0
10
34.000000357627869
20
85.5
10
14.999999999999982
20
85.5
10
14.999999999999982
20
87.5
10
34.000000357627869
20
87.5
0
LWPOLYLINE
5
109
100
AcDbEntity
8
0
100
AcDbPolyline
90
4
70
1
43
0.0
10
14.999999999999982
20
43.500000000000007
10
34.000000357627869
20
43.500000000000007
10
34.000000357627869
20
41.5
10
14.999999999999982
20
41.5
0
LWPOLYLINE
5
110
100
AcDbEntity
8
0
100
AcDbPolyline
90
4
70
1
43
0.0
10
14.999999999999982
20
39.5
10
34.000000357627869
20
39.5
10
34.000000357627869
20
37.5
10
14.999999999999982
20
37.5
0
LWPOLYLINE
5
111
100
AcDbEntity
8
0
100
AcDbPolyline
90
4
70
1
43
0.0
10
34.000000357627869
20
55.5
10
34.000000357627869
20
53.500000000000007
10
14.999999999999982
20
53.500000000000007
10
14.999999999999982
20
55.5
0
LWPOLYLINE
5
112
100
AcDbEntity
8
0
100
AcDbPolyline
90
4
70
1
43
0.0
10
14.999999999999982
20
51.500000000000014
10
34.000000357627869
20
51.500000000000014
10
34.000000357627869
20
49.5
10
14.999999999999982
20
49.5
0
LWPOLYLINE
5
113
100
AcDbEntity
8
0
100
AcDbPolyline
90
4
70
1
43
0.0
10
14.999999999999982
20
59.500000000000021
10
14.999999999999982
20
57.500000000000007
10
34.000000357627869
20
57.500000000000007
10
34.000000357627869
20
59.500000000000021
0
LWPOLYLINE
5
114
100
AcDbEntity
8
0
100
AcDbPolyline
90
4
70
1
43
0.0
10
14.999999999999982
20
35.5
10
34.000000357627869
20
35.5
10
34.000000357627869
20
33.5
10
14.999999999999982
20
33.5
0
LWPOLYLINE
5
115
100
AcDbEntity
8
0
100
AcDbPolyline
90
8
70
1
43
0.0
10
62.994707802712213
20
113.91465398899001
10
62.879800373653659
20
4.9147145565171799
42
-0.4142135623730937
10
57.874532168996282
20
-0.08001168217154575
10
-9.1254306014228277
20
-0.0093805101814359304
42
-0.41421356237309465
10
-14.120156840111557
20
4.9958876944759645
10
-14.005249411053025
20
113.9958271269488
42
-0.41421356237309492
10
-8.9999812063956224
20
118.99055336563751
10
57.99998156402345
20
118.91992219364741
42
-0.41421356237308932
0
LWPOLYLINE
5
116
100
AcDbEntity
8
0
100
AcDbPolyline
90
4
70
1
43
0.0
10
34.000000357627869
20
77.5
10
14.999999999999982
20
77.5
10
14.999999999999982
20
79.500000000000014
10
34.000000357627869
20
79.500000000000014
0
LWPOLYLINE
5
117
100
AcDbEntity
8
0
100
AcDbPolyline
90
4
70
1
43
0.0
10
14.999999999999982
20
63.5
10
34.000000357627869
20
63.5
10
34.000000357627869
20
61.499999999999993
10
14.999999999999982
20
61.499999999999993
0
LWPOLYLINE
5
118
100
AcDbEntity
8
0
100
AcDbPolyline
90
4
70
1
43
0.0
10
34.000000357627869
20
67.5
10
34.000000357627869
20
65.5
10
14.999999999999982
20
65.5
10
14.999999999999982
20
67.5
0
LWPOLYLINE
5
119
100
AcDbEntity
8
0
100
AcDbPolyline
90
4
70
1
43
0.0
10
34.000000357627869
20
47.500000000000007
10
34.000000357627869
20
45.5
10
14.999999999999982
20
45.5
10
14.999999999999982
20
47.500000000000007
0
LWPOLYLINE
5
120
100
AcDbEntity
8
0
100
AcDbPolyline
90
4
70
1
43
0.0
10
14.999999999999982
20
31.5
10
34.000000357627869
20
31.5
10
34.000000357627869
20
29.499999999999996
10
14.999999999999982
20
29.499999999999996
0
CIRCLE
5
121
100
AcDbEntity
8
0
100
AcDbCircle
10
-9.0052521893799629
20
113.99055614396445
30
0
40
1.5000000000000002
210
0
220
0
230
1
0
CIRCLE
5
122
100
AcDbEntity
8
0
100
AcDbCircle
10
57.994710581039079
20
113.91992497197428
30
0
40
1.5000000000000036
210
0
220
0
230
1
0
CIRCLE
5
123
100
AcDbEntity
8
0
100
AcDbCircle
10
-9.120159618438489
20
4.990616711491632
30
0
40
1.5000000000000002
210
0
220
0
230
1
0
CIRCLE
5
124
100
AcDbEntity
8
0
100
AcDbCircle
10
57.879803151980596
20
4.9199855395015168
30
0
40
1.5000000000000022
210
0
220
0
230
1
0
ENDSEC
0
SECTION
2
OBJECTS
0
DICTIONARY
5
C
100
AcDbDictionary
3
ACAD_GROUP
350
D
3
ACAD_MLINESTYLE
350
17
0
DICTIONARY
5
D
100
AcDbDictionary
0
DICTIONARY
5
1A
330
C
100
AcDbDictionary
0
DICTIONARY
5
17
100
AcDbDictionary
0
ENDSEC
0
EOF
