0
SECTION
2
HEADER
9
$INSUNITS
70
4
9
$ACADVER
1
AC1014
9
$HANDSEED
5
FFFF
0
ENDSEC
0
SECTION
2
TABLES
0
TABLE
2
VPORT
5
8
100
AcDbSymbolTable
0
ENDTAB
0
TABLE
2
LTYPE
5
5
100
AcDbSymbolTable
0
LTYPE
5
14
100
AcDbSymbolTableRecord
100
AcDbLinetypeTableRecord
2
BYBLOCK
70
0
0
LTYPE
5
15
100
AcDbSymbolTableRecord
100
AcDbLinetypeTableRecord
2
BYLAYER
70
0
0
ENDTAB
0
TABLE
2
LAYER
5
2
100
AcDbSymbolTable
70
2
0
LAYER
5
50
100
AcDbSymbolTableRecord
100
AcDbLayerTableRecord
2
0
70
0
6
CONTINUOUS
0
ENDTAB
0
TABLE
2
STYLE
5
3
100
AcDbSymbolTable
70
1
0
STYLE
5
11
100
AcDbSymbolTableRecord
100
AcDbTextStyleTableRecord
2
STANDARD
70
0
0
ENDTAB
0
TABLE
2
VIEW
5
6
100
AcDbSymbolTable
70
0
0
ENDTAB
0
TABLE
2
UCS
5
7
100
AcDbSymbolTable
70
0
0
ENDTAB
0
TABLE
2
APPID
5
9
100
AcDbSymbolTable
70
2
0
APPID
5
12
100
AcDbSymbolTableRecord
100
AcDbRegAppTableRecord
2
ACAD
70
0
0
ENDTAB
0
TABLE
2
DIMSTYLE
5
A
100
AcDbSymbolTable
70
1
0
ENDTAB
0
TABLE
2
BLOCK_RECORD
5
1
100
AcDbSymbolTable
70
1
0
BLOCK_RECORD
5
1F
100
AcDbSymbolTableRecord
100
AcDbBlockTableRecord
2
*MODEL_SPACE
0
BLOCK_RECORD
5
1B
100
AcDbSymbolTableRecord
100
AcDbBlockTableRecord
2
*PAPER_SPACE
0
ENDTAB
0
ENDSEC
0
SECTION
2
BLOCKS
0
BLOCK
5
20
100
AcDbEntity
100
AcDbBlockBegin
2
*MODEL_SPACE
0
ENDBLK
5
21
100
AcDbEntity
100
AcDbBlockEnd
0
BLOCK
5
1C
100
AcDbEntity
100
AcDbBlockBegin
2
*PAPER_SPACE
0
ENDBLK
5
1D
100
AcDbEntity
100
AcDbBlockEnd
0
ENDSEC
0
SECTION
2
ENTITIES
0
LWPOLYLINE
5
100
100
AcDbEntity
8
0
100
AcDbPolyline
90
25
70
1
43
0.0
10
-164.27546484899841
20
1.5105773023261331
10
-160.27546484899844
20
1.5105773023261331
10
-160.27546484899844
20
15.510575812209888
10
-164.27546484899841
20
15.510575812209888
10
-164.27546484899847
20
36.010577302325906
10
-160.27546484899847
20
36.010577302325906
10
-160.27546484899847
20
76.010577302325714
10
-164.27546484899847
20
76.0105773023257
10
-164.27546484899847
20
96.510577302325586
10
-160.27546484899847
20
96.510577302325586
10
-160.27546484899847
20
97.510578807342867
10
-160.27546484899847
20
110.51057730232549
10
-164.27546484899841
20
110.51057730232549
10
-193.2754648489983
20
110.51057730232552
10
-197.2754648489983
20
110.51057900105789
10
-197.2754648489983
20
96.510578792441706
10
-193.2754648489983
20
96.510578792441706
10
-193.2754648489983
20
76.0105773023257
10
-197.2754659516842
20
76.0105773023257
10
-197.2754648489983
20
36.010577302325906
10
-193.2754648489983
20
36.010577302325906
10
-193.2754648489983
20
15.510575812209888
10
-197.2754659516842
20
15.510575812209883
10
-197.2754659516842
20
1.5105773023260916
10
-193.27546484899827
20
1.5105773023260922
0
LWPOLYLINE
5
101
100
AcDbEntity
8
0
100
AcDbPolyline
90
4
70
1
43
0.0
10
-169.27546449137054
20
62.010577302325785
10
-188.27546484899835
20
62.010577302325785
10
-188.27546484899835
20
64.010577302325771
10
-169.27546449137054
20
64.010577302325771
0
LWPOLYLINE
5
102
100
AcDbEntity
8
0
100
AcDbPolyline
90
4
70
1
43
0.0
10
-188.27546484899835
20
66.010577302325757
10
-188.27546484899835
20
68.010577302325743
10
-169.27546449137054
20
68.010577302325743
10
-169.27546449137054
20
66.010577302325757
0
LWPOLYLINE
5
103
100
AcDbEntity
8
0
100
AcDbPolyline
90
4
70
1
43
0.0
10
-169.27546449137054
20
86.010577302325657
10
-188.27546484899835
20
86.010577302325657
10
-188.27546484899835
20
88.010577302325686
10
-169.27546449137054
20
88.010577302325686
0
LWPOLYLINE
5
104
100
AcDbEntity
8
0
100
AcDbPolyline
90
4
70
1
43
0.0
10
-169.27546449137054
20
78.0105773023257
10
-188.27546484899835
20
78.0105773023257
10
-188.27546484899835
20
80.010577302325714
10
-169.27546449137054
20
80.010577302325714
0
LWPOLYLINE
5
105
100
AcDbEntity
8
0
100
AcDbPolyline
90
4
70
1
43
0.0
10
-169.27546449137054
20
70.010577302325729
10
-188.27546484899835
20
70.010577302325729
10
-188.27546484899835
20
72.010577302325743
10
-169.27546449137054
20
72.010577302325743
0
LWPOLYLINE
5
106
100
AcDbEntity
8
0
100
AcDbPolyline
90
4
70
1
43
0.0
10
-188.27546484899835
20
82.010577302325686
10
-188.27546484899835
20
84.010577302325657
10
-169.27546449137054
20
84.010577302325657
10
-169.27546449137054
20
82.010577302325686
0
LWPOLYLINE
5
107
100
AcDbEntity
8
0
100
AcDbPolyline
90
4
70
1
43
0.0
10
-169.27546449137054
20
34.010577302325927
10
-188.27546484899835
20
34.01057730232592
10
-188.27546484899835
20
36.010577302325913
10
-169.27546449137054
20
36.010577302325913
0
LWPOLYLINE
5
108
100
AcDbEntity
8
0
100
AcDbPolyline
90
4
70
1
43
0.0
10
-169.27546449137054
20
40.010577302325892
10
-169.27546449137054
20
38.010577302325906
10
-188.27546484899835
20
38.010577302325906
10
-188.27546484899835
20
40.010577302325892
0
LWPOLYLINE
5
109
100
AcDbEntity
8
0
100
AcDbPolyline
90
4
70
1
43
0.0
10
-169.27546449137054
20
52.010577302325835
10
-169.27546449137054
20
50.010577302325856
10
-188.27546484899835
20
50.010577302325856
10
-188.27546484899835
20
52.010577302325835
0
LWPOLYLINE
5
110
100
AcDbEntity
8
0
100
AcDbPolyline
90
4
70
1
43
0.0
10
-188.27546484899835
20
48.010577302325864
10
-169.27546449137054
20
48.010577302325864
10
-169.27546449137054
20
46.010577302325856
10
-188.27546484899835
20
46.010577302325856
0
LWPOLYLINE
5
111
100
AcDbEntity
8
0
100
AcDbPolyline
90
4
70
1
43
0.0
10
-169.27546449137054
20
54.010577302325828
10
-169.27546449137054
20
56.010577302325835
10
-188.27546484899835
20
56.010577302325835
10
-188.27546484899835
20
54.010577302325828
0
LWPOLYLINE
5
112
100
AcDbEntity
8
0
100
AcDbPolyline
90
4
70
1
43
0.0
10
-188.27546484899835
20
32.010577302325935
10
-169.27546449137054
20
32.010577302325942
10
-169.27546449137054
20
30.010577302325949
10
-188.27546484899835
20
30.010577302325942
0
LWPOLYLINE
5
113
100
AcDbEntity
8
0
100
AcDbPolyline
90
4
70
1
43
0.0
10
-188.27546484899835
20
76.010577302325714
10
-188.27546484899835
20
74.010577302325714
10
-169.27546449137054
20
74.010577302325714
10
-169.27546449137054
20
76.010577302325714
0
LWPOLYLINE
5
114
100
AcDbEntity
8
0
100
AcDbPolyline
90
4
70
1
43
0.0
10
-169.27546449137054
20
42.010577302325878
10
-188.27546484899835
20
42.010577302325878
10
-188.27546484899835
20
44.010577302325878
10
-169.27546449137054
20
44.010577302325878
0
LWPOLYLINE
5
115
100
AcDbEntity
8
0
100
AcDbPolyline
90
4
70
1
43
0.0
10
-188.27546484899835
20
60.0105773023258
10
-188.27546484899835
20
58.010577302325785
10
-169.27546449137054
20
58.010577302325785
10
-169.27546449137054
20
60.0105773023258
0
LWPOLYLINE
5
116
100
AcDbEntity
8
0
100
AcDbPolyline
90
4
70
1
43
0.0
10
-169.27546449137054
20
26.01057730232597
10
-188.27546484899835
20
26.010577302325967
10
-188.27546484899835
20
28.010577302325956
10
-169.27546449137054
20
28.010577302325959
0
LWPOLYLINE
5
117
100
AcDbEntity
8
0
100
AcDbPolyline
90
26
70
1
43
0.0
10
-13.753125116043563
20
0.67616799844227915
42
0.41421356237309398
10
-8.753125116043563
20
5.6761679984422333
10
-8.753125116043563
20
19.676166508325956
10
-4.7531251160436128
20
19.676166508325956
10
-4.7531251160436128
20
40.176167998441883
10
-8.753125116043563
20
40.176167998441883
10
-8.753125116043563
20
80.176167998441471
10
-4.7531251160436128
20
80.176167998441471
10
-4.7531251160436483
20
100.67616799844126
10
-8.7531251160435986
20
100.67616799844126
10
-8.7531251160435986
20
114.67616799844112
42
0.41421356237309293
10
-13.753125116043599
20
119.67616799844107
10
-104.75312511604258
20
119.67616799844103
10
-108.75312511604253
20
119.67616799844103
10
-143.75312511604218
20
119.67616799844103
42
0.41421356237309709
10
-148.75312511604216
20
114.67616799844109
10
-148.75312511604216
20
100.67616948855735
10
-156.75312732141393
20
100.67616948855735
10
-156.75312732141393
20
80.176167998441457
10
-148.75312511604216
20
80.176167998441457
10
-148.75312511604216
20
40.176167998441848
10
-156.75312732141393
20
40.176167998441848
10
-156.7531273214139
20
19.676166508325935
10
-148.75312511604216
20
19.676166508325935
10
-148.75312511604213
20
5.6761679984422102
42
0.41421356237309509
10
-143.75312511604218
20
0.67616799844226361
0
LWPOLYLINE
5
118
100
AcDbEntity
8
0
100
AcDbPolyline
90
4
70
1
43
0.0
10
-110.25312439482633
20
116.67616817874514
10
-104.75312439482637
20
116.67616799844109
10
-104.75312503408624
20
97.176167998441258
10
-110.25312503408617
20
97.176168178745314
0
LWPOLYLINE
5
119
100
AcDbEntity
8
0
100
AcDbPolyline
90
4
70
1
43
0.0
10
-72.253125116042924
20
101.67616799844126
10
-52.753125116043122
20
101.67616799844126
10
-52.753125116043122
20
113.67616799844113
10
-72.253125116042924
20
113.67616799844113
0
LWPOLYLINE
5
120
100
AcDbEntity
8
0
100
AcDbPolyline
90
4
70
1
43
0.0
10
-135.25312511604227
20
32.67616799844194
10
-135.25312511604227
20
92.676167998441329
10
-74.753125116042924
20
92.676166642435646
10
-74.753125116042852
20
32.676167998441947
0
LINE
5
121
100
AcDbEntity
8
0
100
AcDbLine
10
-148.75312511604216
20
80.176167998441457
30
0
11
-148.75312511604216
21
40.176167998441848
31
0
0
CIRCLE
5
122
100
AcDbEntity
8
0
100
AcDbCircle
10
-13.753125116043563
20
5.676167998442244
30
0
40
1.7499999999999964
210
0
220
0
230
1
0
CIRCLE
5
123
100
AcDbEntity
8
0
100
AcDbCircle
10
-154.75312729161161
20
24.676166582831684
30
0
40
1.0000000149011612
210
0
220
0
230
1
0
CIRCLE
5
124
100
AcDbEntity
8
0
100
AcDbCircle
10
-143.75312511604218
20
5.6761679984422102
30
0
40
1.7500000000000002
210
0
220
0
230
1
0
CIRCLE
5
125
100
AcDbEntity
8
0
100
AcDbCircle
10
-154.75312729161163
20
95.6761694140516
30
0
40
1.0000000149011612
210
0
220
0
230
1
0
CIRCLE
5
126
100
AcDbEntity
8
0
100
AcDbCircle
10
-143.75312511604218
20
114.67616799844109
30
0
40
1.7500000000000004
210
0
220
0
230
1
0
CIRCLE
5
127
100
AcDbEntity
8
0
100
AcDbCircle
10
-13.753125116043599
20
114.67616799844112
30
0
40
1.7500000000000093
210
0
220
0
230
1
0
CIRCLE
5
128
100
AcDbEntity
8
0
100
AcDbCircle
10
-154.75312729161161
20
34.676166731843196
30
0
40
1.0000000149011612
210
0
220
0
230
1
0
CIRCLE
5
129
100
AcDbEntity
8
0
100
AcDbCircle
10
-154.75312729161163
20
85.676169265040087
30
0
40
1.0000000149011612
210
0
220
0
230
1
0
LWPOLYLINE
5
130
100
AcDbEntity
8
0
100
AcDbPolyline
90
26
70
1
43
0.0
10
143.31908619107759
20
120.98258159676635
10
52.319086191078199
20
120.98258159676634
10
48.319086191078249
20
120.98258159676634
10
13.319086191078462
20
120.98258159676634
42
0.41421356237309503
10
8.3190861910784974
20
115.98258159676638
10
8.3190861910784974
20
101.98258308688258
10
0.31908398570671181
20
101.98258308688258
10
0.31908398570671181
20
81.482581596766593
10
8.3190861910784974
20
81.482581596766593
10
8.3190861910784974
20
41.482581596766856
10
0.31908398570671181
20
41.482581596766856
10
0.31908398570671181
20
20.982580106650865
10
8.3190861910784974
20
20.982580106650865
10
8.319086191078533
20
6.9825815967670977
42
0.4142135623730972
10
13.319086191078497
20
1.9825815967671341
10
143.31908619107759
20
1.9825815967671512
42
0.41421356237309404
10
148.31908619107759
20
6.9825815967671261
10
148.31908619107759
20
20.982580106650893
10
152.31908619107756
20
20.982580106650897
10
152.31908619107756
20
41.482581596766877
10
148.31908619107759
20
41.482581596766877
10
148.31908619107759
20
81.482581596766607
10
152.31908619107756
20
81.482581596766607
10
152.31908619107756
20
101.98258159676649
10
148.31908619107759
20
101.98258159676649
10
148.31908619107759
20
115.98258159676641
42
0.41421356237308776
0
LINE
5
131
100
AcDbEntity
8
0
100
AcDbLine
10
8.3190861910784974
20
81.482581596766593
30
0
11
8.3190861910784974
21
41.482581596766856
31
0
0
CIRCLE
5
132
100
AcDbEntity
8
0
100
AcDbCircle
10
13.319086191078462
20
115.98258159676638
30
0
40
1.7500000000000004
210
0
220
0
230
1
0
CIRCLE
5
133
100
AcDbEntity
8
0
100
AcDbCircle
10
2.3190840155089987
20
86.982582863365266
30
0
40
1.0000000149011612
210
0
220
0
230
1
0
CIRCLE
5
134
100
AcDbEntity
8
0
100
AcDbCircle
10
2.3190840155089987
20
96.982583012376807
30
0
40
1.0000000149011612
210
0
220
0
230
1
0
CIRCLE
5
135
100
AcDbEntity
8
0
100
AcDbCircle
10
2.3190840155089987
20
25.982580181156646
30
0
40
1.0000000149011612
210
0
220
0
230
1
0
CIRCLE
5
136
100
AcDbEntity
8
0
100
AcDbCircle
10
2.3190840155089987
20
35.98258033016819
30
0
40
1.0000000149011612
210
0
220
0
230
1
0
CIRCLE
5
137
100
AcDbEntity
8
0
100
AcDbCircle
10
143.31908619107759
20
6.9825815967671359
30
0
40
1.7499999999999964
210
0
220
0
230
1
0
CIRCLE
5
138
100
AcDbEntity
8
0
100
AcDbCircle
10
13.319086191078497
20
6.9825815967670994
30
0
40
1.7500000000000002
210
0
220
0
230
1
0
CIRCLE
5
139
100
AcDbEntity
8
0
100
AcDbCircle
10
143.31908619107759
20
115.98258159676639
30
0
40
1.7500000000000093
210
0
220
0
230
1
0
LWPOLYLINE
5
140
100
AcDbEntity
8
0
100
AcDbPolyline
90
4
70
1
43
0.0
10
206.60008414496139
20
81.338825418812092
10
206.60008414496139
20
79.338825418812121
10
187.6000837873336
20
79.338825418812121
10
187.6000837873336
20
81.338825418812092
0
LWPOLYLINE
5
141
100
AcDbEntity
8
0
100
AcDbPolyline
90
4
70
1
43
0.0
10
187.6000837873336
20
93.338825418812064
10
206.60008414496139
20
93.338825418812064
10
206.60008414496139
20
91.33882541881205
10
187.6000837873336
20
91.33882541881205
0
LWPOLYLINE
5
142
100
AcDbEntity
8
0
100
AcDbPolyline
90
4
70
1
43
0.0
10
215.60008378733352
20
101.83882541881196
10
215.60008378733352
20
81.338825418812078
10
211.60008378733352
20
81.338825418812078
10
211.60008378733352
20
101.83882541881196
0
LWPOLYLINE
5
143
100
AcDbEntity
8
0
100
AcDbPolyline
90
4
70
1
43
0.0
10
206.60008414496139
20
31.338825418812402
10
187.6000837873336
20
31.338825418812402
10
187.6000837873336
20
33.338825418812391
10
206.60008414496139
20
33.338825418812391
0
LWPOLYLINE
5
144
100
AcDbEntity
8
0
100
AcDbPolyline
90
4
70
1
43
0.0
10
206.60008414496139
20
77.338825418812121
10
206.60008414496139
20
75.338825418812135
10
187.6000837873336
20
75.338825418812135
10
187.6000837873336
20
77.338825418812121
0
LWPOLYLINE
5
145
100
AcDbEntity
8
0
100
AcDbPolyline
90
4
70
1
43
0.0
10
187.6000837873336
20
45.338825418812327
10
206.60008414496139
20
45.338825418812327
10
206.60008414496139
20
43.338825418812334
10
187.6000837873336
20
43.338825418812334
0
LWPOLYLINE
5
146
100
AcDbEntity
8
0
100
AcDbPolyline
90
4
70
1
43
0.0
10
206.60008414496139
20
57.338825418812256
10
206.60008414496139
20
55.338825418812263
10
187.6000837873336
20
55.338825418812263
10
187.6000837873336
20
57.338825418812256
0
LWPOLYLINE
5
147
100
AcDbEntity
8
0
100
AcDbPolyline
90
4
70
1
43
0.0
10
206.60008414496139
20
71.338825418812164
10
187.6000837873336
20
71.338825418812164
10
187.6000837873336
20
73.338825418812149
10
206.60008414496139
20
73.338825418812149
0
LWPOLYLINE
5
148
100
AcDbEntity
8
0
100
AcDbPolyline
90
4
70
1
43
0.0
10
187.6000837873336
20
85.338825418812107
10
206.60008414496139
20
85.338825418812107
10
206.60008414496139
20
83.338825418812092
10
187.6000837873336
20
83.338825418812092
0
LWPOLYLINE
5
149
100
AcDbEntity
8
0
100
AcDbPolyline
90
8
70
1
43
0.0
10
230.47461595632967
20
1.7588137366410299
10
163.47465318591091
20
1.8294449086311426
42
-0.41421356237309431
10
158.47992694722228
20
6.8347131132885135
10
158.59483437628086
20
115.83465254576068
42
-0.41421356237309503
10
163.60010258093814
20
120.82937878444937
10
230.60006535135685
20
120.75874761245927
42
-0.41421356237308671
10
235.59479159004559
20
115.75347940780189
10
235.47988416098704
20
6.7535399753297263
42
-0.41421356237309592
0
LWPOLYLINE
5
150
100
AcDbEntity
8
0
100
AcDbPolyline
90
4
70
1
43
0.0
10
187.6000837873336
20
35.338825418812377
10
187.6000837873336
20
37.338825418812362
10
206.60008414496139
20
37.338825418812362
10
206.60008414496139
20
35.338825418812377
0
LWPOLYLINE
5
151
100
AcDbEntity
8
0
100
AcDbPolyline
90
4
70
1
43
0.0
10
182.6000837873336
20
41.338825418812334
10
178.60008378733369
20
41.338825418812334
10
178.60008268464782
20
20.838823928696328
10
182.6000837873336
20
20.838823928696325
0
LWPOLYLINE
5
152
100
AcDbEntity
8
0
100
AcDbPolyline
90
4
70
1
43
0.0
10
187.6000837873336
20
67.338825418812192
10
187.6000837873336
20
69.338825418812164
10
206.60008414496139
20
69.338825418812164
10
206.60008414496139
20
67.338825418812192
0
LWPOLYLINE
5
153
100
AcDbEntity
8
0
100
AcDbPolyline
90
4
70
1
43
0.0
10
178.60008378733369
20
101.83882690892808
10
178.60008268464782
20
81.338825418812078
10
182.6000837873336
20
81.338825418812078
10
182.6000837873336
20
101.83882690892808
0
LWPOLYLINE
5
154
100
AcDbEntity
8
0
100
AcDbPolyline
90
4
70
1
43
0.0
10
187.6000837873336
20
51.338825418812277
10
187.6000837873336
20
53.338825418812291
10
206.60008414496139
20
53.338825418812291
10
206.60008414496139
20
51.338825418812277
0
LWPOLYLINE
5
155
100
AcDbEntity
8
0
100
AcDbPolyline
90
4
70
1
43
0.0
10
211.60008378733352
20
41.338825418812334
10
215.60008378733352
20
41.338825418812334
10
215.60008378733352
20
20.838823928696325
10
211.60008378733352
20
20.838823928696325
0
LWPOLYLINE
5
156
100
AcDbEntity
8
0
100
AcDbPolyline
90
4
70
1
43
0.0
10
187.6000837873336
20
87.338825418812064
10
187.6000837873336
20
89.33882541881205
10
206.60008414496139
20
89.33882541881205
10
206.60008414496139
20
87.338825418812064
0
LWPOLYLINE
5
157
100
AcDbEntity
8
0
100
AcDbPolyline
90
4
70
1
43
0.0
10
187.6000837873336
20
59.338825418812242
10
206.60008414496139
20
59.338825418812242
10
206.60008414496139
20
61.338825418812249
10
187.6000837873336
20
61.338825418812249
0
LWPOLYLINE
5
158
100
AcDbEntity
8
0
100
AcDbPolyline
90
4
70
1
43
0.0
10
187.6000837873336
20
49.338825418812306
10
206.60008414496139
20
49.338825418812306
10
206.60008414496139
20
47.338825418812299
10
187.6000837873336
20
47.338825418812299
0
CIRCLE
5
159
100
AcDbEntity
8
0
100
AcDbCircle
10
230.47988693931401
20
6.7588109583140641
30
0
40
1.5000000000000024
210
0
220
0
230
1
0
LWPOLYLINE
5
160
100
AcDbEntity
8
0
100
AcDbPolyline
90
4
70
1
43
0.0
10
206.60008414496139
20
63.338825418812199
10
187.6000837873336
20
63.338825418812199
10
187.6000837873336
20
65.338825418812206
10
206.60008414496139
20
65.338825418812206
0
LWPOLYLINE
5
161
100
AcDbEntity
8
0
100
AcDbPolyline
90
4
70
1
43
0.0
10
206.60008414496139
20
41.338825418812341
10
206.60008414496139
20
39.338825418812348
10
187.6000837873336
20
39.338825418812348
10
187.6000837873336
20
41.338825418812341
0
CIRCLE
5
162
100
AcDbEntity
8
0
100
AcDbCircle
10
163.47992416889525
20
6.829442130304181
30
0
40
1.5000000000000002
210
0
220
0
230
1
0
CIRCLE
5
163
100
AcDbEntity
8
0
100
AcDbCircle
10
163.59483159795383
20
115.82938156277633
30
0
40
1.5000000000000002
210
0
220
0
230
1
0
CIRCLE
5
164
100
AcDbEntity
8
0
100
AcDbCircle
10
230.5947943683725
20
115.75875039078616
30
0
40
1.5000000000000036
210
0
220
0
230
1
0
ENDSEC
0
SECTION
2
OBJECTS
0
DICTIONARY
5
C
100
AcDbDictionary
3
ACAD_GROUP
350
D
3
ACAD_MLINESTYLE
350
17
0
DICTIONARY
5
D
100
AcDbDictionary
0
DICTIONARY
5
1A
330
C
100
AcDbDictionary
0
DICTIONARY
5
17
100
AcDbDictionary
0
ENDSEC
0
EOF
