0
SECTION
2
HEADER
9
$INSUNITS
70
4
9
$ACADVER
1
AC1014
9
$HANDSEED
5
FFFF
0
ENDSEC
0
SECTION
2
TABLES
0
TABLE
2
VPORT
5
8
100
AcDbSymbolTable
0
ENDTAB
0
TABLE
2
LTYPE
5
5
100
AcDbSymbolTable
0
LTYPE
5
14
100
AcDbSymbolTableRecord
100
AcDbLinetypeTableRecord
2
BYBLOCK
70
0
0
LTYPE
5
15
100
AcDbSymbolTableRecord
100
AcDbLinetypeTableRecord
2
BYLAYER
70
0
0
ENDTAB
0
TABLE
2
LAYER
5
2
100
AcDbSymbolTable
70
2
0
LAYER
5
50
100
AcDbSymbolTableRecord
100
AcDbLayerTableRecord
2
0
70
0
6
CONTINUOUS
0
ENDTAB
0
TABLE
2
STYLE
5
3
100
AcDbSymbolTable
70
1
0
STYLE
5
11
100
AcDbSymbolTableRecord
100
AcDbTextStyleTableRecord
2
STANDARD
70
0
0
ENDTAB
0
TABLE
2
VIEW
5
6
100
AcDbSymbolTable
70
0
0
ENDTAB
0
TABLE
2
UCS
5
7
100
AcDbSymbolTable
70
0
0
ENDTAB
0
TABLE
2
APPID
5
9
100
AcDbSymbolTable
70
2
0
APPID
5
12
100
AcDbSymbolTableRecord
100
AcDbRegAppTableRecord
2
ACAD
70
0
0
ENDTAB
0
TABLE
2
DIMSTYLE
5
A
100
AcDbSymbolTable
70
1
0
ENDTAB
0
TABLE
2
BLOCK_RECORD
5
1
100
AcDbSymbolTable
70
1
0
BLOCK_RECORD
5
1F
100
AcDbSymbolTableRecord
100
AcDbBlockTableRecord
2
*MODEL_SPACE
0
BLOCK_RECORD
5
1B
100
AcDbSymbolTableRecord
100
AcDbBlockTableRecord
2
*PAPER_SPACE
0
ENDTAB
0
ENDSEC
0
SECTION
2
BLOCKS
0
BLOCK
5
20
100
AcDbEntity
100
AcDbBlockBegin
2
*MODEL_SPACE
0
ENDBLK
5
21
100
AcDbEntity
100
AcDbBlockEnd
0
BLOCK
5
1C
100
AcDbEntity
100
AcDbBlockBegin
2
*PAPER_SPACE
0
ENDBLK
5
1D
100
AcDbEntity
100
AcDbBlockEnd
0
ENDSEC
0
SECTION
2
ENTITIES
0
LWPOLYLINE
5
100
100
AcDbEntity
8
0
100
AcDbPolyline
90
25
70
1
43
0.0
10
0
20
5
10
29.000000000000004
20
5.0000000000000364
10
33
20
5.0000000000000364
10
33
20
18.999998509883866
10
29.000000000000004
20
18.999998509883866
10
28.999999999999986
20
39.499999999999993
10
32.999999999999986
20
39.499999999999993
10
32.999999999999986
20
79.5
10
28.999999999999986
20
79.5
10
28.999999999999989
20
100
10
32.999999999999986
20
100
10
32.999999999999986
20
101.00000150501728
10
32.999999999999986
20
113.99999999999997
10
29
20
113.99999999999997
10
-5.5511151231257827e-15
20
113.99999999999999
10
-4.0000000000000178
20
114.00000169873238
10
-4.0000000000000178
20
100.00000149011612
10
-1.7763568394002505e-14
20
100.00000149011612
10
-1.7763568394002505e-14
20
79.5
10
-4.0000011026859461
20
79.5
10
-4.0000000000000178
20
39.499999999999993
10
-1.7763568394002505e-14
20
39.499999999999993
10
-1.7763568394002505e-14
20
18.999998509883866
10
-4.0000011026859461
20
18.999998509883866
10
-4.0000011026859461
20
5
0
LWPOLYLINE
5
101
100
AcDbEntity
8
0
100
AcDbPolyline
90
4
70
1
43
0.0
10
24.000000357627869
20
65.5
10
4.9999999999999822
20
65.5
10
4.9999999999999822
20
67.5
10
24.000000357627869
20
67.5
0
LWPOLYLINE
5
102
100
AcDbEntity
8
0
100
AcDbPolyline
90
4
70
1
43
0.0
10
24.000000357627869
20
69.5
10
4.9999999999999822
20
69.5
10
4.9999999999999822
20
71.5
10
24.000000357627869
20
71.5
0
LWPOLYLINE
5
103
100
AcDbEntity
8
0
100
AcDbPolyline
90
4
70
1
43
0.0
10
24.000000357627869
20
73.5
10
4.9999999999999822
20
73.5
10
4.9999999999999822
20
75.5
10
24.000000357627869
20
75.5
0
LWPOLYLINE
5
104
100
AcDbEntity
8
0
100
AcDbPolyline
90
4
70
1
43
0.0
10
24.000000357627869
20
89.500000000000014
10
4.9999999999999822
20
89.500000000000014
10
4.9999999999999822
20
91.500000000000028
10
24.000000357627869
20
91.500000000000028
0
LWPOLYLINE
5
105
100
AcDbEntity
8
0
100
AcDbPolyline
90
4
70
1
43
0.0
10
24.000000357627869
20
81.5
10
4.9999999999999822
20
81.5
10
4.9999999999999822
20
83.500000000000014
10
24.000000357627869
20
83.500000000000014
0
LWPOLYLINE
5
106
100
AcDbEntity
8
0
100
AcDbPolyline
90
4
70
1
43
0.0
10
24.000000357627869
20
85.5
10
4.9999999999999822
20
85.5
10
4.9999999999999822
20
87.5
10
24.000000357627869
20
87.5
0
LWPOLYLINE
5
107
100
AcDbEntity
8
0
100
AcDbPolyline
90
4
70
1
43
0.0
10
4.9999999999999822
20
43.500000000000007
10
24.000000357627869
20
43.500000000000007
10
24.000000357627869
20
41.5
10
4.9999999999999822
20
41.5
0
LWPOLYLINE
5
108
100
AcDbEntity
8
0
100
AcDbPolyline
90
4
70
1
43
0.0
10
4.9999999999999822
20
39.5
10
24.000000357627869
20
39.5
10
24.000000357627869
20
37.5
10
4.9999999999999822
20
37.5
0
LWPOLYLINE
5
109
100
AcDbEntity
8
0
100
AcDbPolyline
90
4
70
1
43
0.0
10
24.000000357627869
20
55.5
10
24.000000357627869
20
53.500000000000007
10
4.9999999999999822
20
53.500000000000007
10
4.9999999999999822
20
55.5
0
LWPOLYLINE
5
110
100
AcDbEntity
8
0
100
AcDbPolyline
90
4
70
1
43
0.0
10
4.9999999999999822
20
51.500000000000014
10
24.000000357627869
20
51.500000000000014
10
24.000000357627869
20
49.5
10
4.9999999999999822
20
49.5
0
LWPOLYLINE
5
111
100
AcDbEntity
8
0
100
AcDbPolyline
90
4
70
1
43
0.0
10
4.9999999999999822
20
59.500000000000021
10
4.9999999999999822
20
57.500000000000007
10
24.000000357627869
20
57.500000000000007
10
24.000000357627869
20
59.500000000000021
0
LWPOLYLINE
5
112
100
AcDbEntity
8
0
100
AcDbPolyline
90
4
70
1
43
0.0
10
4.9999999999999822
20
35.5
10
24.000000357627869
20
35.5
10
24.000000357627869
20
33.5
10
4.9999999999999822
20
33.5
0
LWPOLYLINE
5
113
100
AcDbEntity
8
0
100
AcDbPolyline
90
4
70
1
43
0.0
10
4.9999999999999822
20
79.500000000000014
10
4.9999999999999822
20
77.5
10
24.000000357627869
20
77.5
10
24.000000357627869
20
79.500000000000014
0
LWPOLYLINE
5
114
100
AcDbEntity
8
0
100
AcDbPolyline
90
4
70
1
43
0.0
10
4.9999999999999822
20
63.5
10
4.9999999999999822
20
61.499999999999993
10
24.000000357627869
20
61.499999999999993
10
24.000000357627869
20
63.5
0
LWPOLYLINE
5
115
100
AcDbEntity
8
0
100
AcDbPolyline
90
4
70
1
43
0.0
10
4.9999999999999822
20
47.500000000000007
10
24.000000357627869
20
47.500000000000007
10
24.000000357627869
20
45.5
10
4.9999999999999822
20
45.5
0
LWPOLYLINE
5
116
100
AcDbEntity
8
0
100
AcDbPolyline
90
4
70
1
43
0.0
10
4.9999999999999822
20
31.5
10
24.000000357627869
20
31.5
10
24.000000357627869
20
29.499999999999996
10
4.9999999999999822
20
29.499999999999996
0
ENDSEC
0
SECTION
2
OBJECTS
0
DICTIONARY
5
C
100
AcDbDictionary
3
ACAD_GROUP
350
D
3
ACAD_MLINESTYLE
350
17
0
DICTIONARY
5
D
100
AcDbDictionary
0
DICTIONARY
5
1A
330
C
100
AcDbDictionary
0
DICTIONARY
5
17
100
AcDbDictionary
0
ENDSEC
0
EOF
